Format                         : MPEG-4
Format profile                 : Base Media
Codec ID                       : isom
File size                      : 418 MiB
Duration                       : 22mn 0s
Overall bit rate mode          : Variable
Overall bit rate               : 2 657 Kbps
Writing application            : Lavf52.64.2

Video
ID                             : 1
Format                         : AVC
Format/Info                    : Advanced Video Codec
Format profile                 : Main@L3.1
Format settings, CABAC         : Yes
Format settings, ReFrames      : 3 frames
Format settings, GOP           : M=3, N=33
Codec ID                       : avc1
Codec ID/Info                  : Advanced Video Coding
Duration                       : 22mn 0s
Bit rate mode                  : Variable
Bit rate                       : 2 493 Kbps
Maximum bit rate               : 4 000 Kbps
Width                          : 1 280 pixels
Height                         : 720 pixels
Display aspect ratio           : 16:9
Frame rate mode                : Variable
Frame rate                     : 29.970 fps
Minimum frame rate             : 29.970 fps
Maximum frame rate             : 30.000 fps
Standard                       : NTSC
Color space                    : YUV
Chroma subsampling             : 4:2:0
Bit depth                      : 8 bits
Scan type                      : Progressive
Bits/(Pixel*Frame)             : 0.090
Stream size                    : 392 MiB (94%)

Audio
ID                             : 2
Format                         : AAC
Format/Info                    : Advanced Audio Codec
Format profile                 : LC
Codec ID                       : 40
Duration                       : 22mn 0s
Duration_LastFrame             : -21ms
Bit rate mode                  : Variable
Bit rate                       : 157 Kbps
Channel(s)                     : 2 channels
Channel positions              : Front: L R
Sampling rate                  : 48.0 KHz
Compression mode               : Lossy
Stream size                    : 24.8 MiB (6%)
Language                       : English

